<svg xmlns="http://www.w3.org/2000/svg" xmlns:xlink="http://www.w3.org/1999/xlink" width="2000" zoomAndPan="magnify" viewBox="0 0 1500 1499.999933" height="2000" preserveAspectRatio="xMidYMid meet" version="1.0"><defs><g/><clipPath id="3aafcc7eff"><rect x="0" width="1152" y="0" height="630"/></clipPath><clipPath id="17a86001bb"><rect x="0" width="156" y="0" height="630"/></clipPath></defs><rect x="-150" width="1800" fill="#ffffff" y="-149.999993" height="1799.99992" fill-opacity="1"/><rect x="-150" width="1800" fill="#061a37" y="-149.999993" height="1799.99992" fill-opacity="1"/><g transform="matrix(1, 0, 0, 1, 90, 433)"><g clip-path="url(#3aafcc7eff)"><g fill="#ffffff" fill-opacity="1"><g transform="translate(0.0663903, 495.207593)"><g><path d="M 125.515625 -14.765625 C 125.515625 -10.179688 124.03125 -6.570312 121.0625 -3.9375 C 118.09375 -1.3125 113.382812 0 106.9375 0 L 26.21875 0 C 19.9375 0 15.226562 -1.3125 12.09375 -3.9375 C 8.957031 -6.570312 7.390625 -10.097656 7.390625 -14.515625 C 7.390625 -17.734375 8.234375 -20.488281 9.921875 -22.78125 C 11.617188 -25.070312 14.421875 -27.320312 18.328125 -29.53125 L 24.953125 -32.84375 C 28.679688 -34.882812 31.734375 -37.132812 34.109375 -39.59375 C 36.492188 -42.050781 38.660156 -45.441406 40.609375 -49.765625 C 42.554688 -54.097656 44.71875 -60.082031 47.09375 -67.71875 L 120.421875 -297.125 C 123.140625 -305.945312 124.03125 -312.265625 123.09375 -316.078125 C 122.164062 -319.898438 118.644531 -323.085938 112.53125 -325.640625 C 107.78125 -327.503906 104.425781 -329.75 102.46875 -332.375 C 100.519531 -335.007812 99.546875 -338.195312 99.546875 -341.9375 C 99.546875 -346.34375 101.113281 -349.859375 104.25 -352.484375 C 107.394531 -355.117188 112.191406 -356.4375 118.640625 -356.4375 L 263 -356.4375 C 269.445312 -356.4375 274.195312 -355.117188 277.25 -352.484375 C 280.3125 -349.859375 281.84375 -346.34375 281.84375 -341.9375 C 281.84375 -334.46875 277.769531 -329.117188 269.625 -325.890625 C 265.207031 -324.191406 262.570312 -321.859375 261.71875 -318.890625 C 260.875 -315.921875 261.554688 -311.125 263.765625 -304.5 L 341.9375 -63.90625 C 344.988281 -54.0625 348 -46.757812 350.96875 -42 C 353.9375 -37.25 358.050781 -33.859375 363.3125 -31.828125 C 368.75 -29.273438 372.441406 -26.769531 374.390625 -24.3125 C 376.335938 -21.851562 377.3125 -18.671875 377.3125 -14.765625 C 377.3125 -10.179688 375.742188 -6.570312 372.609375 -3.9375 C 369.472656 -1.3125 364.675781 0 358.21875 0 L 234.75 0 C 228.289062 0 223.535156 -1.3125 220.484375 -3.9375 C 217.429688 -6.570312 215.90625 -10.179688 215.90625 -14.765625 C 215.90625 -18.328125 216.878906 -21.253906 218.828125 -23.546875 C 220.785156 -25.835938 223.882812 -27.832031 228.125 -29.53125 L 239.578125 -32.84375 C 243.992188 -34.707031 245.988281 -37.25 245.5625 -40.46875 C 245.132812 -43.695312 243.734375 -48.960938 241.359375 -56.265625 L 222.78125 -115.84375 L 102.09375 -115.84375 L 88.59375 -73.078125 C 86.050781 -65.265625 84.738281 -58.9375 84.65625 -54.09375 C 84.570312 -49.257812 86.015625 -45.1875 88.984375 -41.875 C 91.953125 -38.570312 96.660156 -35.390625 103.109375 -32.328125 L 113.546875 -29.03125 C 117.453125 -27.332031 120.421875 -25.421875 122.453125 -23.296875 C 124.492188 -21.171875 125.515625 -18.328125 125.515625 -14.765625 Z M 112.53125 -148.4375 L 212.59375 -148.4375 L 162.9375 -306.796875 Z M 112.53125 -148.4375 "/></g></g></g><g fill="#ffffff" fill-opacity="1"><g transform="translate(388.824216, 495.207593)"><g><path d="M 367.640625 -85.546875 C 367.640625 -68.578125 362.757812 -53.679688 353 -40.859375 C 343.238281 -28.046875 328.515625 -18.03125 308.828125 -10.8125 C 289.140625 -3.601562 264.359375 0 234.484375 0 L 43.53125 0 C 37.082031 0 32.332031 -1.3125 29.28125 -3.9375 C 26.226562 -6.570312 24.703125 -10.179688 24.703125 -14.765625 C 24.703125 -22.578125 28.6875 -27.925781 36.65625 -30.8125 L 48.890625 -34.109375 C 57.367188 -36.992188 61.609375 -42.257812 61.609375 -49.90625 L 61.609375 -306.546875 C 61.609375 -314.179688 57.367188 -319.441406 48.890625 -322.328125 L 36.65625 -325.640625 C 28.6875 -328.523438 24.703125 -333.867188 24.703125 -341.671875 C 24.703125 -346.253906 26.226562 -349.859375 29.28125 -352.484375 C 32.332031 -355.117188 37.082031 -356.4375 43.53125 -356.4375 L 192.984375 -356.4375 C 225.234375 -356.4375 252.859375 -352.066406 275.859375 -343.328125 C 298.859375 -334.585938 316.507812 -322.410156 328.8125 -306.796875 C 341.125 -291.179688 347.28125 -272.9375 347.28125 -252.0625 C 347.28125 -232.539062 340.828125 -215.519531 327.921875 -201 C 315.023438 -186.488281 296.269531 -176.09375 271.65625 -169.8125 C 291.34375 -166.59375 308.359375 -161.035156 322.703125 -153.140625 C 337.046875 -145.242188 348.117188 -135.566406 355.921875 -124.109375 C 363.734375 -112.660156 367.640625 -99.804688 367.640625 -85.546875 Z M 175.671875 -327.921875 L 160.40625 -327.921875 L 160.40625 -176.4375 L 190.4375 -176.4375 C 211.144531 -176.4375 226.929688 -182.289062 237.796875 -194 C 248.660156 -205.71875 254.09375 -223.285156 254.09375 -246.703125 C 254.09375 -263.335938 251.035156 -277.722656 244.921875 -289.859375 C 238.816406 -301.992188 229.90625 -311.367188 218.1875 -317.984375 C 206.476562 -324.609375 192.304688 -327.921875 175.671875 -327.921875 Z M 199.859375 -151.75 L 160.40625 -151.75 L 160.40625 -56.265625 C 160.40625 -37.765625 171.097656 -28.515625 192.484375 -28.515625 L 212.34375 -28.515625 C 230.84375 -28.515625 245.054688 -33.859375 254.984375 -44.546875 C 264.910156 -55.242188 269.875 -69.925781 269.875 -88.59375 C 269.875 -107.945312 263.847656 -123.3125 251.796875 -134.6875 C 239.742188 -146.0625 222.429688 -151.75 199.859375 -151.75 Z M 199.859375 -151.75 "/></g></g></g><g fill="#ffffff" fill-opacity="1"><g transform="translate(766.889254, 495.207593)"><g><path d="M 331.234375 -55.25 C 334.972656 -49.644531 338.238281 -45.359375 341.03125 -42.390625 C 343.832031 -39.421875 346.800781 -37.128906 349.9375 -35.515625 C 353.082031 -33.898438 357.03125 -32.332031 361.78125 -30.8125 C 366.03125 -29.113281 369.300781 -26.945312 371.59375 -24.3125 C 373.882812 -21.6875 375.03125 -18.503906 375.03125 -14.765625 C 375.03125 -10.179688 373.5 -6.570312 370.4375 -3.9375 C 367.382812 -1.3125 362.632812 0 356.1875 0 L 209.28125 0 C 203 0 198.285156 -1.3125 195.140625 -3.9375 C 192.003906 -6.570312 190.4375 -10.097656 190.4375 -14.515625 C 190.4375 -18.753906 191.582031 -22.1875 193.875 -24.8125 C 196.164062 -27.445312 200.195312 -29.703125 205.96875 -31.578125 C 219.882812 -35.648438 221.753906 -45.40625 211.578125 -60.84375 L 161.671875 -134.6875 L 104.125 -60.59375 C 97.851562 -52.28125 95.140625 -45.875 95.984375 -41.375 C 96.828125 -36.875 100.222656 -33.4375 106.171875 -31.0625 L 113.046875 -29.03125 C 116.773438 -27.5 119.53125 -25.628906 121.3125 -23.421875 C 123.09375 -21.210938 123.984375 -18.328125 123.984375 -14.765625 C 123.984375 -10.347656 122.5 -6.78125 119.53125 -4.0625 C 116.5625 -1.351562 112.023438 0 105.921875 0 L 26.21875 0 C 19.9375 0 15.226562 -1.3125 12.09375 -3.9375 C 8.957031 -6.570312 7.390625 -10.179688 7.390625 -14.765625 C 7.390625 -18.160156 8.40625 -21.046875 10.4375 -23.421875 C 12.476562 -25.796875 16.296875 -28.34375 21.890625 -31.0625 C 28.847656 -34.289062 34.914062 -37.894531 40.09375 -41.875 C 45.269531 -45.863281 50.109375 -50.363281 54.609375 -55.375 C 59.109375 -60.382812 63.820312 -66.195312 68.75 -72.8125 L 140.796875 -165.75 L 47.09375 -304.5 C 44.382812 -308.75 41.925781 -312.144531 39.71875 -314.6875 C 37.507812 -317.226562 35.046875 -319.347656 32.328125 -321.046875 C 29.617188 -322.742188 26.226562 -324.273438 22.15625 -325.640625 C 17.0625 -328.015625 13.625 -330.347656 11.84375 -332.640625 C 10.0625 -334.929688 9.171875 -337.941406 9.171875 -341.671875 C 9.171875 -346.253906 10.695312 -349.859375 13.75 -352.484375 C 16.800781 -355.117188 21.550781 -356.4375 28 -356.4375 L 168.796875 -356.4375 C 175.421875 -356.4375 180.085938 -355.078125 182.796875 -352.359375 C 185.515625 -349.648438 186.875 -346.085938 186.875 -341.671875 C 186.875 -337.941406 186.148438 -334.800781 184.703125 -332.25 C 183.265625 -329.707031 180.765625 -327.925781 177.203125 -326.90625 L 168.03125 -324.359375 C 162.769531 -323.003906 159.800781 -320.753906 159.125 -317.609375 C 158.445312 -314.472656 160.144531 -309.847656 164.21875 -303.734375 L 215.390625 -227.359375 L 265.546875 -294.0625 C 271.484375 -301.695312 274.113281 -307.929688 273.4375 -312.765625 C 272.757812 -317.609375 269.195312 -321.21875 262.75 -323.59375 L 254.34375 -326.140625 C 251.125 -327.503906 248.492188 -329.5 246.453125 -332.125 C 244.421875 -334.757812 243.40625 -337.941406 243.40625 -341.671875 C 243.40625 -346.253906 244.847656 -349.859375 247.734375 -352.484375 C 250.617188 -355.117188 255.113281 -356.4375 261.21875 -356.4375 L 340.90625 -356.4375 C 353.632812 -356.4375 360 -351.6875 360 -342.1875 C 360 -338.445312 358.554688 -335.175781 355.671875 -332.375 C 352.785156 -329.582031 348.457031 -326.828125 342.6875 -324.109375 C 338.28125 -322.242188 334.207031 -319.738281 330.46875 -316.59375 C 326.738281 -313.457031 322.75 -309.300781 318.5 -304.125 C 314.257812 -298.945312 309 -292.285156 302.71875 -284.140625 L 236.015625 -196.8125 Z M 331.234375 -55.25 "/></g></g></g></g></g><g transform="matrix(1, 0, 0, 1, 1257, 434)"><g clip-path="url(#17a86001bb)"><g fill="#00c896" fill-opacity="1"><g transform="translate(0.152503, 498.910686)"><g><path d="M 76.125 6.625 C 66.28125 6.625 57.367188 4.117188 49.390625 -0.890625 C 41.410156 -5.898438 35.085938 -12.519531 30.421875 -20.75 C 25.753906 -28.976562 23.421875 -37.929688 23.421875 -47.609375 C 23.421875 -57.617188 25.753906 -66.695312 30.421875 -74.84375 C 35.085938 -83 41.410156 -89.492188 49.390625 -94.328125 C 57.367188 -99.171875 66.28125 -101.59375 76.125 -101.59375 C 86.132812 -101.59375 95.171875 -99.171875 103.234375 -94.328125 C 111.296875 -89.492188 117.660156 -83 122.328125 -74.84375 C 127.003906 -66.695312 129.34375 -57.617188 129.34375 -47.609375 C 129.34375 -37.929688 127.003906 -28.976562 122.328125 -20.75 C 117.660156 -12.519531 111.296875 -5.898438 103.234375 -0.890625 C 95.171875 4.117188 86.132812 6.625 76.125 6.625 Z M 76.125 6.625 "/></g></g></g></g></g></svg>