<svg xmlns="http://www.w3.org/2000/svg" xmlns:xlink="http://www.w3.org/1999/xlink" width="2000" zoomAndPan="magnify" viewBox="0 0 1500 1499.999933" height="2000" preserveAspectRatio="xMidYMid meet" version="1.0"><defs><g/><clipPath id="0cd3632b20"><rect x="0" width="1142" y="0" height="212"/></clipPath></defs><rect x="-150" width="1800" fill="#ffffff" y="-149.999993" height="1799.99992" fill-opacity="1"/><rect x="-150" width="1800" fill="#061a37" y="-149.999993" height="1799.99992" fill-opacity="1"/><g transform="matrix(1, 0, 0, 1, 150, 673)"><g clip-path="url(#0cd3632b20)"><g fill="#ffffff" fill-opacity="1"><g transform="translate(0.0281083, 166.408071)"><g><path d="M 41.9375 -4.9375 C 41.9375 -3.40625 41.441406 -2.195312 40.453125 -1.3125 C 39.460938 -0.4375 37.890625 0 35.734375 0 L 8.765625 0 C 6.660156 0 5.082031 -0.4375 4.03125 -1.3125 C 2.988281 -2.195312 2.46875 -3.375 2.46875 -4.84375 C 2.46875 -5.925781 2.75 -6.847656 3.3125 -7.609375 C 3.882812 -8.378906 4.820312 -9.132812 6.125 -9.875 L 8.34375 -10.96875 C 9.582031 -11.65625 10.597656 -12.410156 11.390625 -13.234375 C 12.191406 -14.054688 12.914062 -15.1875 13.5625 -16.625 C 14.21875 -18.070312 14.941406 -20.070312 15.734375 -22.625 L 40.234375 -99.28125 C 41.148438 -102.226562 41.453125 -104.335938 41.140625 -105.609375 C 40.828125 -106.890625 39.648438 -107.957031 37.609375 -108.8125 C 36.015625 -109.4375 34.890625 -110.1875 34.234375 -111.0625 C 33.585938 -111.945312 33.265625 -113.015625 33.265625 -114.265625 C 33.265625 -115.734375 33.785156 -116.90625 34.828125 -117.78125 C 35.878906 -118.664062 37.484375 -119.109375 39.640625 -119.109375 L 87.890625 -119.109375 C 90.046875 -119.109375 91.632812 -118.664062 92.65625 -117.78125 C 93.675781 -116.90625 94.1875 -115.734375 94.1875 -114.265625 C 94.1875 -111.765625 92.820312 -109.976562 90.09375 -108.90625 C 88.625 -108.332031 87.742188 -107.550781 87.453125 -106.5625 C 87.171875 -105.570312 87.398438 -103.96875 88.140625 -101.75 L 114.265625 -21.359375 C 115.285156 -18.066406 116.289062 -15.625 117.28125 -14.03125 C 118.269531 -12.445312 119.644531 -11.316406 121.40625 -10.640625 C 123.21875 -9.785156 124.453125 -8.945312 125.109375 -8.125 C 125.765625 -7.300781 126.09375 -6.238281 126.09375 -4.9375 C 126.09375 -3.40625 125.566406 -2.195312 124.515625 -1.3125 C 123.460938 -0.4375 121.859375 0 119.703125 0 L 78.4375 0 C 76.28125 0 74.691406 -0.4375 73.671875 -1.3125 C 72.648438 -2.195312 72.140625 -3.40625 72.140625 -4.9375 C 72.140625 -6.125 72.46875 -7.097656 73.125 -7.859375 C 73.78125 -8.628906 74.816406 -9.300781 76.234375 -9.875 L 80.0625 -10.96875 C 81.53125 -11.59375 82.191406 -12.441406 82.046875 -13.515625 C 81.910156 -14.597656 81.445312 -16.359375 80.65625 -18.796875 L 74.4375 -38.703125 L 34.109375 -38.703125 L 29.609375 -24.421875 C 28.753906 -21.804688 28.3125 -19.691406 28.28125 -18.078125 C 28.257812 -16.460938 28.742188 -15.101562 29.734375 -14 C 30.722656 -12.894531 32.296875 -11.832031 34.453125 -10.8125 L 37.9375 -9.703125 C 39.25 -9.128906 40.242188 -8.488281 40.921875 -7.78125 C 41.597656 -7.070312 41.9375 -6.125 41.9375 -4.9375 Z M 37.609375 -49.59375 L 71.046875 -49.59375 L 54.453125 -102.515625 Z M 37.609375 -49.59375 "/></g></g></g><g fill="#ffffff" fill-opacity="1"><g transform="translate(129.942939, 166.408071)"><g><path d="M 42.703125 -76.828125 L 43.984375 -64.40625 C 46.085938 -70.8125 49.132812 -75.613281 53.125 -78.8125 C 57.125 -82.019531 61.507812 -83.625 66.28125 -83.625 C 72.007812 -83.625 76.414062 -81.960938 79.5 -78.640625 C 82.59375 -75.328125 84.140625 -70.382812 84.140625 -63.8125 C 84.140625 -57.570312 82.863281 -52.945312 80.3125 -49.9375 C 77.757812 -46.9375 74.46875 -45.4375 70.4375 -45.4375 C 66.351562 -45.4375 63.257812 -46.5 61.15625 -48.625 C 59.0625 -50.75 58.015625 -53.710938 58.015625 -57.515625 L 58.015625 -60.921875 C 57.960938 -64.148438 56.460938 -65.765625 53.515625 -65.765625 C 51.191406 -65.765625 49.117188 -64.273438 47.296875 -61.296875 C 45.484375 -58.316406 44.578125 -53.453125 44.578125 -46.703125 L 44.578125 -15.90625 C 44.578125 -14.09375 44.875 -12.773438 45.46875 -11.953125 C 46.070312 -11.128906 47.335938 -10.578125 49.265625 -10.296875 L 56.0625 -9.015625 C 59.070312 -8.503906 60.578125 -6.972656 60.578125 -4.421875 C 60.578125 -1.472656 58.675781 0 54.875 0 L 11.484375 0 C 9.554688 0 8.140625 -0.378906 7.234375 -1.140625 C 6.328125 -1.910156 5.875 -2.976562 5.875 -4.34375 C 5.875 -6.320312 7.007812 -7.796875 9.28125 -8.765625 L 11.90625 -9.609375 C 12.875 -9.953125 13.554688 -10.5625 13.953125 -11.4375 C 14.347656 -12.320312 14.546875 -13.785156 14.546875 -15.828125 L 14.546875 -59.8125 C 14.546875 -61.457031 14.316406 -62.632812 13.859375 -63.34375 C 13.410156 -64.050781 12.675781 -64.519531 11.65625 -64.75 L 8.515625 -65.171875 C 6.410156 -65.734375 5.359375 -67.007812 5.359375 -69 C 5.359375 -70.132812 5.679688 -71.054688 6.328125 -71.765625 C 6.984375 -72.472656 8.191406 -73.164062 9.953125 -73.84375 L 26.796875 -80.234375 C 30.253906 -81.535156 32.734375 -82.398438 34.234375 -82.828125 C 35.742188 -83.253906 36.953125 -83.46875 37.859375 -83.46875 C 39.273438 -83.46875 40.363281 -82.957031 41.125 -81.9375 C 41.894531 -80.914062 42.421875 -79.210938 42.703125 -76.828125 Z M 42.703125 -76.828125 "/></g></g></g><g fill="#ffffff" fill-opacity="1"><g transform="translate(216.382652, 166.408071)"><g><path d="M 88.140625 -51.125 C 88.140625 -47.613281 87.160156 -44.894531 85.203125 -42.96875 C 83.242188 -41.039062 80.421875 -40.078125 76.734375 -40.078125 L 32.75 -40.078125 C 34.113281 -32.703125 37.109375 -27.210938 41.734375 -23.609375 C 46.359375 -20.003906 52.128906 -18.203125 59.046875 -18.203125 C 63.410156 -18.203125 67.304688 -18.910156 70.734375 -20.328125 C 74.171875 -21.742188 77.140625 -24.015625 79.640625 -27.140625 C 80.992188 -28.441406 82.039062 -29.316406 82.78125 -29.765625 C 83.519531 -30.222656 84.257812 -30.453125 85 -30.453125 C 86.019531 -30.453125 86.753906 -29.96875 87.203125 -29 C 87.660156 -28.039062 87.890625 -26.851562 87.890625 -25.4375 C 87.828125 -21.695312 86.832031 -18.164062 84.90625 -14.84375 C 82.976562 -11.53125 80.296875 -8.597656 76.859375 -6.046875 C 73.429688 -3.492188 69.378906 -1.476562 64.703125 0 C 60.023438 1.476562 54.847656 2.21875 49.171875 2.21875 C 42.816406 2.21875 36.957031 1.253906 31.59375 -0.671875 C 26.238281 -2.609375 21.578125 -5.375 17.609375 -8.96875 C 13.640625 -12.570312 10.5625 -16.882812 8.375 -21.90625 C 6.195312 -26.925781 5.109375 -32.5 5.109375 -38.625 C 5.109375 -47.582031 6.894531 -55.4375 10.46875 -62.1875 C 14.039062 -68.9375 19.203125 -74.195312 25.953125 -77.96875 C 32.703125 -81.738281 40.8125 -83.625 50.28125 -83.625 C 58.445312 -83.625 65.351562 -82.234375 71 -79.453125 C 76.644531 -76.679688 80.910156 -72.851562 83.796875 -67.96875 C 86.691406 -63.09375 88.140625 -57.476562 88.140625 -51.125 Z M 31.90625 -49.59375 C 31.90625 -49.3125 31.90625 -49.015625 31.90625 -48.703125 C 31.90625 -48.390625 31.90625 -48.09375 31.90625 -47.8125 L 53.765625 -47.8125 C 55.296875 -47.8125 56.429688 -48.132812 57.171875 -48.78125 C 57.910156 -49.4375 58.28125 -50.503906 58.28125 -51.984375 C 58.28125 -59.242188 57.1875 -64.601562 55 -68.0625 C 52.820312 -71.519531 49.890625 -73.25 46.203125 -73.25 C 42.054688 -73.25 38.632812 -71.234375 35.9375 -67.203125 C 33.25 -63.179688 31.90625 -57.3125 31.90625 -49.59375 Z M 31.90625 -49.59375 "/></g></g></g><g fill="#ffffff" fill-opacity="1"><g transform="translate(309.628664, 166.408071)"><g><path d="M 44.578125 -76.828125 L 44.578125 -68.40625 C 51.046875 -74.019531 56.773438 -77.957031 61.765625 -80.21875 C 66.753906 -82.488281 71.40625 -83.625 75.71875 -83.625 C 80.707031 -83.625 85.0625 -82.519531 88.78125 -80.3125 C 92.5 -78.101562 95.40625 -75.007812 97.5 -71.03125 C 99.59375 -67.0625 100.640625 -62.414062 100.640625 -57.09375 L 100.640625 -16 C 100.640625 -13.894531 100.867188 -12.390625 101.328125 -11.484375 C 101.785156 -10.578125 102.492188 -9.953125 103.453125 -9.609375 L 105.84375 -8.765625 C 107.082031 -8.253906 107.957031 -7.644531 108.46875 -6.9375 C 108.976562 -6.226562 109.234375 -5.363281 109.234375 -4.34375 C 109.234375 -1.445312 107.390625 0 103.703125 0 L 68.40625 0 C 66.414062 0 64.96875 -0.394531 64.0625 -1.1875 C 63.15625 -1.976562 62.703125 -3.113281 62.703125 -4.59375 C 62.703125 -6.40625 63.609375 -7.765625 65.421875 -8.671875 L 67.890625 -9.609375 C 68.859375 -10.066406 69.550781 -10.71875 69.96875 -11.5625 C 70.394531 -12.414062 70.609375 -13.894531 70.609375 -16 L 70.609375 -52.75 C 70.609375 -57.0625 69.585938 -60.296875 67.546875 -62.453125 C 65.503906 -64.609375 62.695312 -65.6875 59.125 -65.6875 C 56.914062 -65.6875 54.578125 -65.1875 52.109375 -64.1875 C 49.640625 -63.195312 47.242188 -61.707031 44.921875 -59.71875 L 44.578125 -59.46875 L 44.578125 -15.90625 C 44.578125 -13.8125 44.789062 -12.351562 45.21875 -11.53125 C 45.644531 -10.707031 46.335938 -10.066406 47.296875 -9.609375 L 49.6875 -8.671875 C 51.5 -7.765625 52.40625 -6.40625 52.40625 -4.59375 C 52.40625 -3.113281 51.953125 -1.976562 51.046875 -1.1875 C 50.140625 -0.394531 48.691406 0 46.703125 0 L 11.484375 0 C 9.554688 0 8.140625 -0.378906 7.234375 -1.140625 C 6.328125 -1.910156 5.875 -2.976562 5.875 -4.34375 C 5.875 -6.320312 7.007812 -7.796875 9.28125 -8.765625 L 11.90625 -9.609375 C 12.875 -10.003906 13.554688 -10.628906 13.953125 -11.484375 C 14.347656 -12.335938 14.546875 -13.785156 14.546875 -15.828125 L 14.546875 -60.0625 C 14.546875 -61.707031 14.316406 -62.882812 13.859375 -63.59375 C 13.410156 -64.300781 12.675781 -64.769531 11.65625 -65 L 8.515625 -65.421875 C 6.410156 -66.046875 5.359375 -67.320312 5.359375 -69.25 C 5.359375 -70.445312 5.679688 -71.382812 6.328125 -72.0625 C 6.984375 -72.738281 8.191406 -73.421875 9.953125 -74.109375 L 27.21875 -80.65625 C 29.769531 -81.613281 31.835938 -82.320312 33.421875 -82.78125 C 35.015625 -83.238281 36.519531 -83.46875 37.9375 -83.46875 C 40.09375 -83.46875 41.738281 -82.851562 42.875 -81.625 C 44.007812 -80.40625 44.578125 -78.804688 44.578125 -76.828125 Z M 44.578125 -76.828125 "/></g></g></g><g fill="#ffffff" fill-opacity="1"><g transform="translate(422.868109, 166.408071)"><g><path d="M 6.046875 -17.953125 C 6.046875 -22.941406 7.546875 -27.265625 10.546875 -30.921875 C 13.554688 -34.578125 17.910156 -37.410156 23.609375 -39.421875 C 29.304688 -41.441406 36.15625 -42.453125 44.15625 -42.453125 C 46.363281 -42.453125 48.40625 -42.351562 50.28125 -42.15625 C 52.15625 -41.957031 53.882812 -41.660156 55.46875 -41.265625 L 55.46875 -66.1875 C 55.46875 -69.25 54.660156 -71.660156 53.046875 -73.421875 C 51.429688 -75.179688 49.207031 -76.0625 46.375 -76.0625 C 43.925781 -76.0625 41.976562 -75.535156 40.53125 -74.484375 C 39.09375 -73.429688 38.375 -72.082031 38.375 -70.4375 L 38.375 -62.015625 C 38.375 -57.929688 36.984375 -54.769531 34.203125 -52.53125 C 31.421875 -50.289062 27.503906 -49.171875 22.453125 -49.171875 C 18.035156 -49.171875 14.75 -50.132812 12.59375 -52.0625 C 10.4375 -53.988281 9.359375 -56.65625 9.359375 -60.0625 C 9.359375 -62.789062 10.25 -65.539062 12.03125 -68.3125 C 13.820312 -71.09375 16.488281 -73.628906 20.03125 -75.921875 C 23.582031 -78.222656 28.019531 -80.066406 33.34375 -81.453125 C 38.675781 -82.847656 44.859375 -83.546875 51.890625 -83.546875 C 63.128906 -83.546875 71.484375 -81.390625 76.953125 -77.078125 C 82.421875 -72.765625 85.15625 -66.894531 85.15625 -59.46875 L 85.15625 -17.015625 C 85.15625 -15.710938 85.453125 -14.675781 86.046875 -13.90625 C 86.648438 -13.144531 87.546875 -12.765625 88.734375 -12.765625 C 89.867188 -12.765625 90.71875 -13.03125 91.28125 -13.5625 C 91.851562 -14.101562 92.394531 -14.660156 92.90625 -15.234375 C 93.25 -15.628906 93.601562 -15.96875 93.96875 -16.25 C 94.332031 -16.53125 94.800781 -16.671875 95.375 -16.671875 C 96.226562 -16.671875 96.851562 -16.359375 97.25 -15.734375 C 97.644531 -15.109375 97.84375 -14.316406 97.84375 -13.359375 C 97.84375 -11.710938 97.390625 -9.976562 96.484375 -8.15625 C 95.578125 -6.34375 94.242188 -4.65625 92.484375 -3.09375 C 90.722656 -1.539062 88.523438 -0.269531 85.890625 0.71875 C 83.253906 1.71875 80.203125 2.21875 76.734375 2.21875 C 71.921875 2.21875 67.851562 1.3125 64.53125 -0.5 C 61.21875 -2.320312 59.078125 -4.765625 58.109375 -7.828125 C 54.984375 -4.597656 51.09375 -2.113281 46.4375 -0.375 C 41.789062 1.351562 36.914062 2.21875 31.8125 2.21875 C 26.707031 2.21875 22.210938 1.351562 18.328125 -0.375 C 14.441406 -2.113281 11.421875 -4.5 9.265625 -7.53125 C 7.117188 -10.5625 6.046875 -14.035156 6.046875 -17.953125 Z M 36.5 -23.140625 C 36.5 -19.171875 37.460938 -16.164062 39.390625 -14.125 C 41.316406 -12.082031 43.8125 -11.0625 46.875 -11.0625 C 48.40625 -11.0625 49.90625 -11.300781 51.375 -11.78125 C 52.851562 -12.257812 54.21875 -12.898438 55.46875 -13.703125 L 55.46875 -34.109375 C 54.394531 -34.515625 53.289062 -34.816406 52.15625 -35.015625 C 51.019531 -35.210938 49.800781 -35.3125 48.5 -35.3125 C 44.75 -35.3125 41.8125 -34.242188 39.6875 -32.109375 C 37.5625 -29.984375 36.5 -26.992188 36.5 -23.140625 Z M 36.5 -23.140625 "/></g></g></g><g fill="#ffffff" fill-opacity="1"><g transform="translate(521.984493, 166.408071)"><g><path d="M 122.859375 -28.59375 C 122.859375 -22.914062 121.222656 -17.9375 117.953125 -13.65625 C 114.691406 -9.375 109.769531 -6.023438 103.1875 -3.609375 C 96.613281 -1.203125 88.335938 0 78.359375 0 L 14.546875 0 C 12.390625 0 10.800781 -0.4375 9.78125 -1.3125 C 8.757812 -2.195312 8.25 -3.40625 8.25 -4.9375 C 8.25 -7.539062 9.582031 -9.328125 12.25 -10.296875 L 16.328125 -11.40625 C 19.171875 -12.363281 20.59375 -14.117188 20.59375 -16.671875 L 20.59375 -102.4375 C 20.59375 -104.988281 19.171875 -106.742188 16.328125 -107.703125 L 12.25 -108.8125 C 9.582031 -109.78125 8.25 -111.566406 8.25 -114.171875 C 8.25 -115.703125 8.757812 -116.90625 9.78125 -117.78125 C 10.800781 -118.664062 12.390625 -119.109375 14.546875 -119.109375 L 64.484375 -119.109375 C 75.265625 -119.109375 84.492188 -117.644531 92.171875 -114.71875 C 99.859375 -111.800781 105.757812 -107.734375 109.875 -102.515625 C 113.988281 -97.296875 116.046875 -91.203125 116.046875 -84.234375 C 116.046875 -77.703125 113.890625 -72.007812 109.578125 -67.15625 C 105.265625 -62.3125 99 -58.84375 90.78125 -56.75 C 97.351562 -55.664062 103.035156 -53.804688 107.828125 -51.171875 C 112.628906 -48.535156 116.332031 -45.300781 118.9375 -41.46875 C 121.550781 -37.644531 122.859375 -33.351562 122.859375 -28.59375 Z M 58.703125 -109.578125 L 53.59375 -109.578125 L 53.59375 -58.953125 L 63.640625 -58.953125 C 70.554688 -58.953125 75.828125 -60.910156 79.453125 -64.828125 C 83.085938 -68.742188 84.90625 -74.613281 84.90625 -82.4375 C 84.90625 -88 83.882812 -92.804688 81.84375 -96.859375 C 79.800781 -100.910156 76.820312 -104.039062 72.90625 -106.25 C 69 -108.46875 64.265625 -109.578125 58.703125 -109.578125 Z M 66.78125 -50.703125 L 53.59375 -50.703125 L 53.59375 -18.796875 C 53.59375 -12.617188 57.164062 -9.53125 64.3125 -9.53125 L 70.953125 -9.53125 C 77.140625 -9.53125 81.890625 -11.316406 85.203125 -14.890625 C 88.523438 -18.460938 90.1875 -23.367188 90.1875 -29.609375 C 90.1875 -36.078125 88.171875 -41.207031 84.140625 -45 C 80.117188 -48.800781 74.332031 -50.703125 66.78125 -50.703125 Z M 66.78125 -50.703125 "/></g></g></g><g fill="#ffffff" fill-opacity="1"><g transform="translate(648.326042, 166.408071)"><g><path d="M 52.5 -83.625 C 59.414062 -83.625 65.691406 -82.585938 71.328125 -80.515625 C 76.972656 -78.453125 81.835938 -75.503906 85.921875 -71.671875 C 90.003906 -67.847656 93.148438 -63.285156 95.359375 -57.984375 C 97.578125 -52.679688 98.6875 -46.820312 98.6875 -40.40625 C 98.6875 -34.394531 97.535156 -28.796875 95.234375 -23.609375 C 92.941406 -18.421875 89.695312 -13.894531 85.5 -10.03125 C 81.300781 -6.175781 76.3125 -3.171875 70.53125 -1.015625 C 64.75 1.140625 58.367188 2.21875 51.390625 2.21875 C 44.460938 2.21875 38.175781 1.171875 32.53125 -0.921875 C 26.894531 -3.023438 22.035156 -5.988281 17.953125 -9.8125 C 13.867188 -13.644531 10.71875 -18.195312 8.5 -23.46875 C 6.289062 -28.75 5.1875 -34.566406 5.1875 -40.921875 C 5.1875 -47.046875 6.332031 -52.703125 8.625 -57.890625 C 10.925781 -63.085938 14.175781 -67.613281 18.375 -71.46875 C 22.570312 -75.320312 27.5625 -78.3125 33.34375 -80.4375 C 39.132812 -82.5625 45.519531 -83.625 52.5 -83.625 Z M 58.625 -8.421875 C 63.15625 -9.273438 66.210938 -12.566406 67.796875 -18.296875 C 69.390625 -24.023438 69.109375 -32.390625 66.953125 -43.390625 C 64.859375 -54.109375 61.894531 -61.929688 58.0625 -66.859375 C 54.238281 -71.796875 49.972656 -73.8125 45.265625 -72.90625 C 40.785156 -72.0625 37.734375 -68.773438 36.109375 -63.046875 C 34.492188 -57.316406 34.765625 -48.945312 36.921875 -37.9375 C 39.023438 -27.28125 41.988281 -19.46875 45.8125 -14.5 C 49.644531 -9.539062 53.914062 -7.515625 58.625 -8.421875 Z M 58.625 -8.421875 "/></g></g></g><g fill="#ffffff" fill-opacity="1"><g transform="translate(752.291952, 166.408071)"><g><path d="M 52.5 -83.625 C 59.414062 -83.625 65.691406 -82.585938 71.328125 -80.515625 C 76.972656 -78.453125 81.835938 -75.503906 85.921875 -71.671875 C 90.003906 -67.847656 93.148438 -63.285156 95.359375 -57.984375 C 97.578125 -52.679688 98.6875 -46.820312 98.6875 -40.40625 C 98.6875 -34.394531 97.535156 -28.796875 95.234375 -23.609375 C 92.941406 -18.421875 89.695312 -13.894531 85.5 -10.03125 C 81.300781 -6.175781 76.3125 -3.171875 70.53125 -1.015625 C 64.75 1.140625 58.367188 2.21875 51.390625 2.21875 C 44.460938 2.21875 38.175781 1.171875 32.53125 -0.921875 C 26.894531 -3.023438 22.035156 -5.988281 17.953125 -9.8125 C 13.867188 -13.644531 10.71875 -18.195312 8.5 -23.46875 C 6.289062 -28.75 5.1875 -34.566406 5.1875 -40.921875 C 5.1875 -47.046875 6.332031 -52.703125 8.625 -57.890625 C 10.925781 -63.085938 14.175781 -67.613281 18.375 -71.46875 C 22.570312 -75.320312 27.5625 -78.3125 33.34375 -80.4375 C 39.132812 -82.5625 45.519531 -83.625 52.5 -83.625 Z M 58.625 -8.421875 C 63.15625 -9.273438 66.210938 -12.566406 67.796875 -18.296875 C 69.390625 -24.023438 69.109375 -32.390625 66.953125 -43.390625 C 64.859375 -54.109375 61.894531 -61.929688 58.0625 -66.859375 C 54.238281 -71.796875 49.972656 -73.8125 45.265625 -72.90625 C 40.785156 -72.0625 37.734375 -68.773438 36.109375 -63.046875 C 34.492188 -57.316406 34.765625 -48.945312 36.921875 -37.9375 C 39.023438 -27.28125 41.988281 -19.46875 45.8125 -14.5 C 49.644531 -9.539062 53.914062 -7.515625 58.625 -8.421875 Z M 58.625 -8.421875 "/></g></g></g><g fill="#ffffff" fill-opacity="1"><g transform="translate(856.257807, 166.408071)"><g><path d="M 42.796875 -74.265625 C 39.160156 -74.265625 36.394531 -73.425781 34.5 -71.75 C 32.601562 -70.082031 31.65625 -68.003906 31.65625 -65.515625 C 31.65625 -64.035156 31.960938 -62.644531 32.578125 -61.34375 C 33.203125 -60.039062 34.503906 -58.863281 36.484375 -57.8125 C 38.472656 -56.757812 41.484375 -55.835938 45.515625 -55.046875 C 52.773438 -53.679688 58.726562 -52.035156 63.375 -50.109375 C 68.03125 -48.179688 71.660156 -45.984375 74.265625 -43.515625 C 76.878906 -41.046875 78.707031 -38.304688 79.75 -35.296875 C 80.800781 -32.296875 81.328125 -29.039062 81.328125 -25.53125 C 81.328125 -16.957031 78.320312 -10.1875 72.3125 -5.21875 C 66.300781 -0.257812 57.484375 2.21875 45.859375 2.21875 C 41.828125 2.21875 38.5625 1.890625 36.0625 1.234375 C 33.570312 0.578125 31.5625 -0.0703125 30.03125 -0.71875 C 28.5 -1.375 27.109375 -1.703125 25.859375 -1.703125 C 24.554688 -1.703125 23.492188 -1.375 22.671875 -0.71875 C 21.847656 -0.0703125 21.050781 0.585938 20.28125 1.265625 C 19.519531 1.953125 18.488281 2.296875 17.1875 2.296875 C 15.9375 2.296875 15.015625 1.941406 14.421875 1.234375 C 13.828125 0.523438 13.242188 -0.734375 12.671875 -2.546875 L 7.578125 -18.546875 C 6.046875 -23.535156 6.753906 -26.597656 9.703125 -27.734375 C 11.285156 -28.359375 12.65625 -28.382812 13.8125 -27.8125 C 14.976562 -27.25 16.101562 -26.144531 17.1875 -24.5 C 21.039062 -18.375 25.222656 -13.9375 29.734375 -11.1875 C 34.242188 -8.4375 38.992188 -7.0625 43.984375 -7.0625 C 48.347656 -7.0625 51.609375 -7.925781 53.765625 -9.65625 C 55.921875 -11.382812 57 -13.640625 57 -16.421875 C 57 -18.179688 56.546875 -19.726562 55.640625 -21.0625 C 54.734375 -22.394531 53.003906 -23.613281 50.453125 -24.71875 C 47.898438 -25.820312 44.097656 -26.882812 39.046875 -27.90625 C 31.273438 -29.4375 25.078125 -31.519531 20.453125 -34.15625 C 15.835938 -36.789062 12.535156 -40.007812 10.546875 -43.8125 C 8.566406 -47.613281 7.578125 -52.066406 7.578125 -57.171875 C 7.578125 -62.503906 8.976562 -67.140625 11.78125 -71.078125 C 14.59375 -75.023438 18.492188 -78.101562 23.484375 -80.3125 C 28.472656 -82.519531 34.171875 -83.625 40.578125 -83.625 C 43.703125 -83.625 46.328125 -83.410156 48.453125 -82.984375 C 50.578125 -82.566406 52.390625 -82.085938 53.890625 -81.546875 C 55.398438 -81.003906 56.707031 -80.519531 57.8125 -80.09375 C 58.914062 -79.675781 60.007812 -79.46875 61.09375 -79.46875 C 62.507812 -79.46875 63.679688 -79.820312 64.609375 -80.53125 C 65.546875 -81.238281 66.453125 -81.929688 67.328125 -82.609375 C 68.210938 -83.285156 69.25 -83.625 70.4375 -83.625 C 71.519531 -83.625 72.414062 -83.238281 73.125 -82.46875 C 73.832031 -81.707031 74.359375 -80.421875 74.703125 -78.609375 L 78.109375 -63.21875 C 78.554688 -60.71875 78.625 -58.816406 78.3125 -57.515625 C 78 -56.210938 77.109375 -55.25 75.640625 -54.625 C 74.160156 -54 72.820312 -54.023438 71.625 -54.703125 C 70.4375 -55.378906 69.222656 -56.628906 67.984375 -58.453125 C 64.234375 -64.296875 60.175781 -68.390625 55.8125 -70.734375 C 51.445312 -73.085938 47.109375 -74.265625 42.796875 -74.265625 Z M 42.796875 -74.265625 "/></g></g></g><g fill="#ffffff" fill-opacity="1"><g transform="translate(943.293127, 166.408071)"><g><path d="M 9.4375 -71.640625 L 6.203125 -72.734375 C 3.648438 -73.648438 2.375 -75.097656 2.375 -77.078125 C 2.375 -78.492188 2.84375 -79.554688 3.78125 -80.265625 C 4.71875 -80.972656 5.984375 -81.328125 7.578125 -81.328125 L 12.5 -81.328125 C 13.695312 -81.328125 14.757812 -81.597656 15.6875 -82.140625 C 16.625 -82.679688 17.71875 -83.660156 18.96875 -85.078125 L 30.453125 -98.609375 C 33.398438 -101.898438 36.179688 -103.546875 38.796875 -103.546875 C 40.210938 -103.546875 41.316406 -103.085938 42.109375 -102.171875 C 42.910156 -101.265625 43.3125 -99.9375 43.3125 -98.1875 L 43.3125 -81.328125 L 62.015625 -81.328125 C 63.546875 -81.328125 64.765625 -81 65.671875 -80.34375 C 66.585938 -79.695312 67.046875 -78.75 67.046875 -77.5 C 67.046875 -75.6875 66.132812 -74.15625 64.3125 -72.90625 C 62.5 -71.664062 59.582031 -71.046875 55.5625 -71.046875 L 43.3125 -71.046875 L 43.3125 -27.65625 C 43.3125 -23.570312 44.046875 -20.476562 45.515625 -18.375 C 46.992188 -16.28125 49.117188 -15.234375 51.890625 -15.234375 C 53.597656 -15.234375 54.972656 -15.539062 56.015625 -16.15625 C 57.066406 -16.78125 57.929688 -17.578125 58.609375 -18.546875 C 59.296875 -19.515625 59.921875 -20.460938 60.484375 -21.390625 C 61.054688 -22.328125 61.65625 -23.109375 62.28125 -23.734375 C 62.90625 -24.359375 63.695312 -24.671875 64.65625 -24.671875 C 65.625 -24.671875 66.40625 -24.328125 67 -23.640625 C 67.59375 -22.960938 67.890625 -21.800781 67.890625 -20.15625 C 67.890625 -17.15625 67.179688 -14.304688 65.765625 -11.609375 C 64.347656 -8.921875 62.363281 -6.554688 59.8125 -4.515625 C 57.257812 -2.472656 54.253906 -0.867188 50.796875 0.296875 C 47.335938 1.460938 43.5625 2.046875 39.46875 2.046875 C 31.195312 2.046875 24.757812 0.03125 20.15625 -4 C 15.5625 -8.03125 13.265625 -14.15625 13.265625 -22.375 L 13.265625 -66.28125 C 13.265625 -67.863281 12.96875 -69.023438 12.375 -69.765625 C 11.78125 -70.503906 10.800781 -71.128906 9.4375 -71.640625 Z M 9.4375 -71.640625 "/></g></g></g><g fill="#ffffff" fill-opacity="1"><g transform="translate(1014.163416, 166.408071)"><g><path d="M 110.6875 -18.46875 C 111.9375 -16.59375 113.023438 -15.15625 113.953125 -14.15625 C 114.890625 -13.164062 115.882812 -12.398438 116.9375 -11.859375 C 117.988281 -11.328125 119.304688 -10.804688 120.890625 -10.296875 C 122.304688 -9.722656 123.394531 -9 124.15625 -8.125 C 124.925781 -7.25 125.3125 -6.1875 125.3125 -4.9375 C 125.3125 -3.40625 124.800781 -2.195312 123.78125 -1.3125 C 122.757812 -0.4375 121.175781 0 119.03125 0 L 69.9375 0 C 67.832031 0 66.253906 -0.4375 65.203125 -1.3125 C 64.160156 -2.195312 63.640625 -3.375 63.640625 -4.84375 C 63.640625 -6.257812 64.019531 -7.40625 64.78125 -8.28125 C 65.550781 -9.164062 66.898438 -9.921875 68.828125 -10.546875 C 73.484375 -11.910156 74.109375 -15.171875 70.703125 -20.328125 L 54.03125 -45 L 34.796875 -20.25 C 32.703125 -17.46875 31.796875 -15.328125 32.078125 -13.828125 C 32.359375 -12.328125 33.492188 -11.175781 35.484375 -10.375 L 37.78125 -9.703125 C 39.019531 -9.191406 39.9375 -8.566406 40.53125 -7.828125 C 41.132812 -7.085938 41.4375 -6.125 41.4375 -4.9375 C 41.4375 -3.457031 40.9375 -2.265625 39.9375 -1.359375 C 38.945312 -0.453125 37.429688 0 35.390625 0 L 8.765625 0 C 6.660156 0 5.082031 -0.4375 4.03125 -1.3125 C 2.988281 -2.195312 2.46875 -3.40625 2.46875 -4.9375 C 2.46875 -6.070312 2.804688 -7.035156 3.484375 -7.828125 C 4.171875 -8.617188 5.445312 -9.46875 7.3125 -10.375 C 9.644531 -11.457031 11.675781 -12.664062 13.40625 -14 C 15.132812 -15.332031 16.75 -16.832031 18.25 -18.5 C 19.75 -20.175781 21.320312 -22.117188 22.96875 -24.328125 L 47.046875 -55.390625 L 15.734375 -101.75 C 14.828125 -103.164062 14.003906 -104.300781 13.265625 -105.15625 C 12.535156 -106.007812 11.710938 -106.71875 10.796875 -107.28125 C 9.890625 -107.851562 8.757812 -108.363281 7.40625 -108.8125 C 5.695312 -109.601562 4.546875 -110.378906 3.953125 -111.140625 C 3.359375 -111.910156 3.0625 -112.921875 3.0625 -114.171875 C 3.0625 -115.703125 3.570312 -116.90625 4.59375 -117.78125 C 5.613281 -118.664062 7.203125 -119.109375 9.359375 -119.109375 L 56.40625 -119.109375 C 58.613281 -119.109375 60.171875 -118.65625 61.078125 -117.75 C 61.992188 -116.84375 62.453125 -115.648438 62.453125 -114.171875 C 62.453125 -112.921875 62.207031 -111.867188 61.71875 -111.015625 C 61.238281 -110.171875 60.40625 -109.578125 59.21875 -109.234375 L 56.15625 -108.390625 C 54.394531 -107.929688 53.398438 -107.175781 53.171875 -106.125 C 52.941406 -105.082031 53.507812 -103.539062 54.875 -101.5 L 71.96875 -75.96875 L 88.734375 -98.265625 C 90.722656 -100.816406 91.601562 -102.898438 91.375 -104.515625 C 91.144531 -106.128906 89.953125 -107.335938 87.796875 -108.140625 L 85 -108.984375 C 83.914062 -109.441406 83.03125 -110.109375 82.34375 -110.984375 C 81.664062 -111.859375 81.328125 -112.921875 81.328125 -114.171875 C 81.328125 -115.703125 81.8125 -116.90625 82.78125 -117.78125 C 83.75 -118.664062 85.253906 -119.109375 87.296875 -119.109375 L 113.921875 -119.109375 C 118.171875 -119.109375 120.296875 -117.519531 120.296875 -114.34375 C 120.296875 -113.09375 119.8125 -112 118.84375 -111.0625 C 117.882812 -110.132812 116.441406 -109.210938 114.515625 -108.296875 C 113.035156 -107.679688 111.671875 -106.847656 110.421875 -105.796875 C 109.179688 -104.742188 107.851562 -103.351562 106.4375 -101.625 C 105.019531 -99.894531 103.257812 -97.671875 101.15625 -94.953125 L 78.875 -65.765625 Z M 110.6875 -18.46875 "/></g></g></g></g></g><g fill="#00c896" fill-opacity="1"><g transform="translate(1298.943665, 840.979828)"><g><path d="M 25.4375 2.21875 C 22.144531 2.21875 19.164062 1.378906 16.5 -0.296875 C 13.832031 -1.972656 11.71875 -4.1875 10.15625 -6.9375 C 8.601562 -9.6875 7.828125 -12.675781 7.828125 -15.90625 C 7.828125 -19.257812 8.601562 -22.296875 10.15625 -25.015625 C 11.71875 -27.734375 13.832031 -29.898438 16.5 -31.515625 C 19.164062 -33.140625 22.144531 -33.953125 25.4375 -33.953125 C 28.78125 -33.953125 31.800781 -33.140625 34.5 -31.515625 C 37.195312 -29.898438 39.320312 -27.734375 40.875 -25.015625 C 42.4375 -22.296875 43.21875 -19.257812 43.21875 -15.90625 C 43.21875 -12.675781 42.4375 -9.6875 40.875 -6.9375 C 39.320312 -4.1875 37.195312 -1.972656 34.5 -0.296875 C 31.800781 1.378906 28.78125 2.21875 25.4375 2.21875 Z M 25.4375 2.21875 "/></g></g></g></svg>